<?xml version="1.0" encoding="UTF-8"?>
<svg xmlns="http://www.w3.org/2000/svg" viewBox="0 0 834 843" width="834" height="843">

  <path d="M290 311L236 298.5L166 407L310 364L290 311Z" fill="#FFFFFF"></path>
  <path d="M287.5 307L234 170.5L92 264.5L287.5 307Z" fill="#FFFFFF"></path>
  <path d="M409.5 294.5L358.5 470L246 179L409.5 294.5Z" fill="#FFFFFF"></path>
  <path d="M583 332L416.5 302.5L363.5 482.5L382 541L583 332Z" fill="#FFFFFF"></path>
  <path d="M584 332L475 117.5L416.5 302L584 332Z" fill="#FFFFFF"></path>
  <path d="M559.5 214.5L572 145L611 210L575.5 235L559.5 214.5Z" fill="#FFFFFF"></path>
  <path d="M567.5 101L486 115L546.5 233.5L567.5 101Z" fill="#FFFFFF"></path>
  <path d="M572.5 136L578 99.5L625 123.5L572.5 136Z" fill="#FFFFFF"></path>
  <path d="M530 44L565.5 92L474 55L459 0L530 44Z" fill="#FFFFFF"></path>
  <path d="M506.649 102.338L565.523 92.4338L473.978 55.5446L425 84.7187L506.649 102.338Z" fill="#FFFFFF"></path>
  <path d="M552 0.5L587.5 95.5L529.5 42.5L552 0.5Z" fill="#FFFFFF"></path>

  <path d="M803.345 770.293C803.67 768.177 803.833 763.62 803.833 756.621V712.065C793.742 720.773 782.552 725.127 770.264 725.127C753.418 725.127 739.746 719.715 729.248 708.892C718.262 697.661 712.769 682.687 712.769 663.97C712.769 642.811 718.628 625.802 730.347 612.944C741.74 600.656 756.185 594.512 773.682 594.512C787.028 594.512 797.526 596.628 805.176 600.859L833.74 595.732V770.293H803.345ZM803.833 629.424C797.974 623.809 788.615 621.001 775.757 621.001C765.666 621.001 757.609 624.826 751.587 632.476C745.646 640.044 742.676 649.525 742.676 660.918C742.676 677.845 748.698 689.116 760.742 694.731C764.811 696.685 769.613 697.661 775.146 697.661C786.621 697.661 796.183 692.371 803.833 681.792V629.424Z" fill="#FFFFFF"></path>
  <path d="M683.716 709.624C683.716 716.623 683.879 721.18 684.204 723.296H653.198V595.732H683.716V709.624Z" fill="#FFFFFF"></path>
  <rect x="647" y="563.42" width="31" height="31" transform="rotate(-45 647 563.42)" fill="#FFFFFF"></rect>
  <path d="M511.108 595.732H545.654L575.439 679.717L604.248 595.732H638.062L587.646 723.296H562.5L511.108 595.732Z" fill="#FFFFFF"></path>
  <path d="M494.995 709.624C494.995 716.623 495.158 721.18 495.483 723.296H464.478V595.732H494.995V709.624Z" fill="#FFFFFF"></path>
  <rect x="464" y="541.5" width="31" height="31" fill="#FFFFFF"></rect>
  <path d="M397.583 557.891C412.801 557.891 425.781 560.535 436.523 565.825V603.179L436.279 603.423C431.722 596.424 422.119 591.785 407.471 589.507C403.158 588.774 397.705 588.408 391.113 588.408C384.521 588.408 378.052 589.67 371.704 592.192C365.356 594.634 360.148 598.133 356.079 602.69C348.185 611.561 344.238 624.215 344.238 640.654C344.238 659.779 349.243 674.02 359.253 683.379C367.554 691.191 378.54 695.098 392.212 695.098C407.674 695.098 420.207 691.802 429.81 685.21C433.309 682.85 436.279 679.92 438.721 676.421L439.087 676.665V710.845C426.636 721.18 409.871 726.348 388.794 726.348C363.973 726.348 344.523 718.454 330.444 702.666C316.935 687.611 310.181 667.673 310.181 642.852C310.181 616.566 317.586 595.854 332.397 580.718C347.371 565.5 369.1 557.891 397.583 557.891Z" fill="#FFFFFF"></path>
  <path d="M166.26 660.186C166.26 651.234 167.765 642.689 170.776 634.551C173.869 626.331 178.263 619.17 183.96 613.066C196.411 599.883 212.565 593.291 232.422 593.291C252.197 593.291 267.904 599.517 279.541 611.968C290.69 623.849 296.265 639.271 296.265 658.232C296.265 677.194 290.527 692.9 279.053 705.352C266.927 718.535 250.854 725.127 230.835 725.127C210.164 725.127 193.97 718.657 182.251 705.718C171.59 693.918 166.26 678.74 166.26 660.186ZM195.923 659.453C195.923 664.58 196.777 669.544 198.486 674.346C200.195 679.147 202.637 683.257 205.811 686.675C212.565 694.08 221.436 697.783 232.422 697.783C242.594 697.783 250.61 694.162 256.47 686.919C262.166 679.92 265.015 670.806 265.015 659.575C265.015 648.182 262.085 638.986 256.226 631.987C249.959 624.5 241.374 620.757 230.469 620.757C219.401 620.757 210.734 624.744 204.468 632.72C198.771 640.044 195.923 648.955 195.923 659.453Z" fill="#FFFFFF"></path>
  <path d="M145.874 625.396C144.328 628.162 143.555 634.795 143.555 645.293V683.135C143.555 694.609 137.614 704.578 125.732 713.042C113.444 721.912 98.3887 726.348 80.5664 726.348C55.8268 726.348 36.0921 718.576 21.3623 703.032C7.12077 688.221 0 669.341 0 646.392C0 621.978 7.24284 601.632 21.7285 585.356C37.9232 567.046 60.2214 557.891 88.623 557.891C107.585 557.891 122.599 561.553 133.667 568.877L131.714 604.888L130.737 605.132C127.889 600.168 122.274 596.099 113.892 592.925C105.916 589.914 97.5342 588.408 88.7451 588.408C80.0374 588.408 72.3877 589.792 65.7959 592.559C59.2855 595.326 53.7516 599.272 49.1943 604.399C39.5915 614.897 34.79 628.773 34.79 646.025C34.79 661.081 39.0218 673.166 47.4854 682.28C55.9489 691.313 66.8538 695.83 80.2002 695.83C94.93 695.83 104.858 692.005 109.985 684.355C111.613 681.914 112.427 679.147 112.427 676.055V655.791H96.6797C88.2161 655.791 83.6182 656.523 82.8857 657.988L82.5195 657.866L81.4209 626.006C83.6995 626.657 92.9362 626.982 109.131 626.982H123.535C132.487 626.982 139.811 626.372 145.508 625.151L145.874 625.245Z" fill="#FFFFFF"></path>

  <line x1="88" y1="813.5" x2="4" y2="813.5" stroke="#FFFFFF" stroke-width="8" stroke-linecap="round"></line>
  <line x1="830" y1="813.5" x2="746" y2="813.5" stroke="#FFFFFF" stroke-width="8" stroke-linecap="round"></line>
  <text x="417" y="825" text-anchor="middle" font-family="Helvetica, Arial, sans-serif" font-weight="600" font-size="26" letter-spacing="8" fill="rgba(255,255,255,0.65)" style="text-transform:uppercase">PLATE-FORME CITOYENNE</text>
</svg>