<?xml version="1.0" encoding="UTF-8"?>
<svg xmlns="http://www.w3.org/2000/svg" viewBox="0 0 1700 541" width="1700" height="541">

  <path d="M283 311L229 298.5L159 407L303 364L283 311Z" fill="#FFFFFF"></path>
  <path d="M280.5 307L227 170.5L85 264.5L280.5 307Z" fill="#FFFFFF"></path>
  <path d="M402.5 294.5L351.5 470L239 179L402.5 294.5Z" fill="#FFFFFF"></path>
  <path d="M576 332L409.5 302.5L356.5 482.5L375 541L576 332Z" fill="#FFFFFF"></path>
  <path d="M577 332L468 117.5L409.5 302L577 332Z" fill="#FFFFFF"></path>
  <path d="M552.5 214.5L565 145L604 210L568.5 235L552.5 214.5Z" fill="#FFFFFF"></path>
  <path d="M560.5 101L479 115L539.5 233.5L560.5 101Z" fill="#FFFFFF"></path>
  <path d="M565.5 136L571 99.5L618 123.5L565.5 136Z" fill="#FFFFFF"></path>
  <path d="M523 44L558.5 92L467 55L452 0L523 44Z" fill="#FFFFFF"></path>
  <path d="M499.649 102.338L558.523 92.4338L466.978 55.5446L418 84.7187L499.649 102.338Z" fill="#FFFFFF"></path>
  <path d="M545 0.5L580.5 95.5L522.5 42.5L545 0.5Z" fill="#FFFFFF"></path>

  <path d="M1583.34 382.793C1583.67 380.677 1583.83 376.12 1583.83 369.121V324.565C1573.74 333.273 1562.55 337.627 1550.26 337.627C1533.42 337.627 1519.75 332.215 1509.25 321.392C1498.26 310.161 1492.77 295.187 1492.77 276.47C1492.77 255.311 1498.63 238.302 1510.35 225.444C1521.74 213.156 1536.18 207.012 1553.68 207.012C1567.03 207.012 1577.53 209.128 1585.18 213.359L1613.74 208.232V382.793H1583.34ZM1583.83 241.924C1577.97 236.309 1568.61 233.501 1555.76 233.501C1545.67 233.501 1537.61 237.326 1531.59 244.976C1525.65 252.544 1522.68 262.025 1522.68 273.418C1522.68 290.345 1528.7 301.616 1540.74 307.231C1544.81 309.185 1549.61 310.161 1555.15 310.161C1566.62 310.161 1576.18 304.871 1583.83 294.292V241.924Z" fill="#FFFFFF"></path>
  <path d="M1463.72 322.124C1463.72 329.123 1463.88 333.68 1464.2 335.796H1433.2V208.232H1463.72V322.124Z" fill="#FFFFFF"></path>
  <rect x="1427" y="175.92" width="31" height="31" transform="rotate(-45 1427 175.92)" fill="#FFFFFF"></rect>
  <path d="M1291.11 208.232H1325.65L1355.44 292.217L1384.25 208.232H1418.06L1367.65 335.796H1342.5L1291.11 208.232Z" fill="#FFFFFF"></path>
  <path d="M1275 322.124C1275 329.123 1275.16 333.68 1275.48 335.796H1244.48V208.232H1275V322.124Z" fill="#FFFFFF"></path>
  <rect x="1244" y="154" width="31" height="31" fill="#FFFFFF"></rect>
  <path d="M1177.58 170.391C1192.8 170.391 1205.78 173.035 1216.52 178.325V215.679L1216.28 215.923C1211.72 208.924 1202.12 204.285 1187.47 202.007C1183.16 201.274 1177.71 200.908 1171.11 200.908C1164.52 200.908 1158.05 202.17 1151.7 204.692C1145.36 207.134 1140.15 210.633 1136.08 215.19C1128.19 224.061 1124.24 236.715 1124.24 253.154C1124.24 272.279 1129.24 286.52 1139.25 295.879C1147.55 303.691 1158.54 307.598 1172.21 307.598C1187.67 307.598 1200.21 304.302 1209.81 297.71C1213.31 295.35 1216.28 292.42 1218.72 288.921L1219.09 289.165V323.345C1206.64 333.68 1189.87 338.848 1168.79 338.848C1143.97 338.848 1124.52 330.954 1110.44 315.166C1096.94 300.111 1090.18 280.173 1090.18 255.352C1090.18 229.066 1097.59 208.354 1112.4 193.218C1127.37 178 1149.1 170.391 1177.58 170.391Z" fill="#FFFFFF"></path>
  <path d="M946.26 272.686C946.26 263.734 947.765 255.189 950.776 247.051C953.869 238.831 958.263 231.67 963.96 225.566C976.411 212.383 992.565 205.791 1012.42 205.791C1032.2 205.791 1047.9 212.017 1059.54 224.468C1070.69 236.349 1076.26 251.771 1076.26 270.732C1076.26 289.694 1070.53 305.4 1059.05 317.852C1046.93 331.035 1030.85 337.627 1010.83 337.627C990.164 337.627 973.97 331.157 962.251 318.218C951.59 306.418 946.26 291.24 946.26 272.686ZM975.923 271.953C975.923 277.08 976.777 282.044 978.486 286.846C980.195 291.647 982.637 295.757 985.811 299.175C992.565 306.58 1001.44 310.283 1012.42 310.283C1022.59 310.283 1030.61 306.662 1036.47 299.419C1042.17 292.42 1045.01 283.306 1045.01 272.075C1045.01 260.682 1042.08 251.486 1036.23 244.487C1029.96 237 1021.37 233.257 1010.47 233.257C999.401 233.257 990.734 237.244 984.468 245.22C978.771 252.544 975.923 261.455 975.923 271.953Z" fill="#FFFFFF"></path>
  <path d="M925.874 237.896C924.328 240.662 923.555 247.295 923.555 257.793V295.635C923.555 307.109 917.614 317.078 905.732 325.542C893.444 334.412 878.389 338.848 860.566 338.848C835.827 338.848 816.092 331.076 801.362 315.532C787.121 300.721 780 281.841 780 258.892C780 234.478 787.243 214.132 801.729 197.856C817.923 179.546 840.221 170.391 868.623 170.391C887.585 170.391 902.599 174.053 913.667 181.377L911.714 217.388L910.737 217.632C907.889 212.668 902.274 208.599 893.892 205.425C885.916 202.414 877.534 200.908 868.745 200.908C860.037 200.908 852.388 202.292 845.796 205.059C839.285 207.826 833.752 211.772 829.194 216.899C819.591 227.397 814.79 241.273 814.79 258.525C814.79 273.581 819.022 285.666 827.485 294.78C835.949 303.813 846.854 308.33 860.2 308.33C874.93 308.33 884.858 304.505 889.985 296.855C891.613 294.414 892.427 291.647 892.427 288.555V268.291H876.68C868.216 268.291 863.618 269.023 862.886 270.488L862.52 270.366L861.421 238.506C863.7 239.157 872.936 239.482 889.131 239.482H903.535C912.487 239.482 919.811 238.872 925.508 237.651L925.874 237.896Z" fill="#FFFFFF"></path>

  <line x1="868" y1="414" x2="784" y2="414" stroke="#FFFFFF" stroke-width="8" stroke-linecap="round"></line>
  <line x1="1610" y1="414" x2="1526" y2="414" stroke="#FFFFFF" stroke-width="8" stroke-linecap="round"></line>
  <text x="1197" y="425" text-anchor="middle" font-family="Helvetica, Arial, sans-serif" font-weight="600" font-size="26" letter-spacing="8" fill="rgba(255,255,255,0.55)" style="text-transform:uppercase">PLATE-FORME CITOYENNE</text>
</svg>