<?xml version="1.0" encoding="UTF-8"?>
<svg xmlns="http://www.w3.org/2000/svg" viewBox="0 0 1024 1024" width="1024" height="1024">
<rect width="1024" height="1024" rx="225.28" ry="225.28" fill="#0A0E1A"></rect>
<g transform="translate(83.04 189.68) scale(1.1916)">

  <path d="M290 311L236 298.5L166 407L310 364L290 311Z" fill="#1a3f80"></path>
  <path d="M287.5 307L234 170.5L92 264.5L287.5 307Z" fill="#1a3f80"></path>
  <path d="M409.5 294.5L358.5 470L246 179L409.5 294.5Z" fill="#4e84e8"></path>
  <path d="M583 332L416.5 302.5L363.5 482.5L382 541L583 332Z" fill="#1a3f80"></path>
  <path d="M584 332L475 117.5L416.5 302L584 332Z" fill="#4e84e8"></path>
  <path d="M559.5 214.5L572 145L611 210L575.5 235L559.5 214.5Z" fill="#C1121F"></path>
  <path d="M567.5 101L486 115L546.5 233.5L567.5 101Z" fill="#1a3f80"></path>
  <path d="M572.5 136L578 99.5L625 123.5L572.5 136Z" fill="#1a3f80"></path>
  <path d="M530 44L565.5 92L474 55L459 0L530 44Z" fill="#E00114"></path>
  <path d="M506.649 102.338L565.523 92.4338L473.978 55.5446L425 84.7187L506.649 102.338Z" fill="#C1121F"></path>
  <path d="M552 0.5L587.5 95.5L529.5 42.5L552 0.5Z" fill="#E00114"></path>
</g>
</svg>